<svg id="Layer_1" data-name="Layer 1" xmlns="http://www.w3.org/2000/svg" viewBox="0 0 1364.24 300"><defs><style>.cls-1{fill:#ccc;}.cls-2{fill:#dd0031;}.cls-3{fill:#080b10;}</style></defs><title>logo-01</title><path class="cls-1" d="M421.61,120.38H428l28.15,70.15,28-70.15h6l-31.5,77h-5.54Z"/><path class="cls-1" d="M525.45,120.38H571.6v5.19H531v29.08h31.73v5.19H531v32.31h43.61v5.19H525.45Z"/><path class="cls-1" d="M666.1,166.07H645.57v-5.19h26.08v28.85a32.57,32.57,0,0,1-4.73,3.4,39.72,39.72,0,0,1-6.41,3.06,45.31,45.31,0,0,1-8.19,2.19,59.1,59.1,0,0,1-10.21.81,38.57,38.57,0,0,1-15.23-2.94A33.64,33.64,0,0,1,615,187.93a38,38,0,0,1-7.62-12.81,47.39,47.39,0,0,1-2.71-16.33,45,45,0,0,1,2.71-15.75A39.59,39.59,0,0,1,615,130.24a34.88,34.88,0,0,1,11.83-8.6,36.69,36.69,0,0,1,15.23-3.12,33.3,33.3,0,0,1,11.71,1.85,33.89,33.89,0,0,1,8.25,4.33,27.43,27.43,0,0,1,5.25,4.9,39.79,39.79,0,0,1,2.59,3.58l-4.15,2.88q-.69-.92-2.31-2.94A23.48,23.48,0,0,0,659,129a31.15,31.15,0,0,0-6.87-3.69,25.38,25.38,0,0,0-9.46-1.62,32,32,0,0,0-13.44,2.71,29,29,0,0,0-10,7.44A33.23,33.23,0,0,0,612.91,145a42.27,42.27,0,0,0-2.19,13.79,43.3,43.3,0,0,0,2.13,13.79,33.08,33.08,0,0,0,6.23,11.19,29,29,0,0,0,9.92,7.5A30.69,30.69,0,0,0,642.1,194a45.62,45.62,0,0,0,14.59-2,36.3,36.3,0,0,0,9.41-4.61Z"/><path class="cls-1" d="M737.87,120.38h5.54l31.5,77h-6.35l-10-24.81H722.29l-9.92,24.81h-6Zm18.58,47-16-39.92-16,39.92Z"/><polygon class="cls-2" points="0 0 0 197.59 171.38 300.29 0 0"/><polygon class="cls-2" points="342.75 0 342.75 197.59 171.38 300.29 342.75 0"/><rect class="cls-2" x="1199.57" y="2.02" width="79.51" height="79.51"/><path class="cls-3" d="M1251.56,39.09l-3.91,3.55h-21.31V26.31h21.31l3.91,3.55ZM1253,50.81l7.61-7.61V26.1l-8.3-8.3H1216.4V67.51h9.95V51.17h15.27l11.72,16.34h11.72L1253,50.81h0Z"/><rect class="cls-2" x="1284.73" y="2.02" width="79.51" height="79.51"/><polygon class="cls-3" points="1350.72 67.51 1330.87 41.98 1349.31 17.86 1337.6 17.86 1324.48 35.24 1311.36 17.86 1299.66 17.86 1318.1 41.98 1298.24 67.51 1309.94 67.51 1324.48 49.07 1339.02 67.51 1350.72 67.51"/><polygon class="cls-1" points="1127.05 1.94 1127.05 56.51 1083.27 1.94 1067.92 1.94 1067.92 81.53 1083.85 81.53 1083.85 26.95 1127.61 81.53 1142.97 81.53 1142.97 1.94 1127.05 1.94"/><path class="cls-1" d="M592.15,47.15h0l.3-.3ZM583.63,1.94,548.39,81.52h17.67l27.78-63.61h0l0-.05,12.51,29H592.46l-.3.3L578.82,60.48h33.8l9.1,21h17.62L604.09,1.94Z"/><polygon class="cls-1" points="822.15 1.94 822.15 81.52 881.24 81.52 881.24 67.91 837.95 67.91 837.95 48.63 875.53 48.63 875.53 34.73 837.95 34.73 837.95 15.58 873.91 15.58 887.56 1.94 822.15 1.94"/><path class="cls-1" d="M951.66,61.44V22l7.43-7.43h30.68L997.21,22V61.44l-7.43,7.43H959.09Zm-.79-59.49h0L937.38,15.43V68L950.87,81.5H998L1011.49,68V15.43L998,1.95H950.87Z"/><path class="cls-1" d="M437.54,15.58h34.1l6.27,6.26V35.51l-6.26,6.22h-34.1ZM421.61,1.94V81.53h15.92V55.38H462l18.76,26.15H499.5L480.16,54.81h0l12.18-12.18V15.25L479.05,2l0,0Z"/><path class="cls-1" d="M706.65,15.58h35.81L749.84,23V60.49l-7.39,7.39H706.65ZM690.73,1.94V81.52h59.1l15.94-15.94V17.82L749.84,1.94Z"/></svg>